<svg xmlns="http://www.w3.org/2000/svg" width="19.712" height="22.359" viewBox="0 0 19.712 22.359">
  <g id="Bell" transform="translate(-4.126 -3)">
    <path id="Path_11643" data-name="Path 11643" d="M6.673,11.253A7.2,7.2,0,0,1,8.829,6.109a7.321,7.321,0,0,1,12.462,5.235v.715c0,3.608.763,5.7,1.435,6.846a.8.8,0,0,1,0,.807.81.81,0,0,1-.3.3.821.821,0,0,1-.408.109H5.938a.821.821,0,0,1-.408-.109.809.809,0,0,1-.3-.3.8.8,0,0,1,0-.807c.672-1.144,1.435-3.238,1.435-6.846Z" transform="translate(0 0)" fill="none" stroke="#9f9f9f" stroke-linecap="round" stroke-linejoin="round" stroke-width="2"/>
    <path id="Path_11644" data-name="Path 11644" d="M12,24v.848a3.393,3.393,0,0,0,6.786,0V24" transform="translate(-1.412 -3.882)" fill="none" stroke="#9f9f9f" stroke-linecap="round" stroke-linejoin="round" stroke-width="2"/>
  </g>
</svg>
