<svg xmlns="http://www.w3.org/2000/svg" width="25.097" height="20.659" viewBox="0 0 25.097 20.659">
  <g id="EyeSlash" transform="translate(-1.25 -3.941)">
    <path id="Path_11944" data-name="Path 11944" d="M6,5,22.855,23.54" transform="translate(-0.629)" fill="none" stroke="#6e6e7f" stroke-linecap="round" stroke-linejoin="round" stroke-width="1.5"/>
    <path id="Path_11945" data-name="Path 11945" d="M18.048,18.536A4.214,4.214,0,0,1,12.379,12.3" transform="translate(-1.415 -1.148)" fill="none" stroke="#6e6e7f" stroke-linecap="round" stroke-linejoin="round" stroke-width="1.5"/>
    <path id="Path_11946" data-name="Path 11946" d="M8.109,8.574A14.3,14.3,0,0,0,2,14.832s3.371,7.584,11.8,7.584a12.433,12.433,0,0,0,5.688-1.327" transform="translate(0 -0.562)" fill="none" stroke="#6e6e7f" stroke-linecap="round" stroke-linejoin="round" stroke-width="1.5"/>
    <path id="Path_11947" data-name="Path 11947" d="M24.085,18.914a14.328,14.328,0,0,0,3.307-4.33S24.021,7,15.593,7a13.2,13.2,0,0,0-2.179.177" transform="translate(-1.795 -0.314)" fill="none" stroke="#6e6e7f" stroke-linecap="round" stroke-linejoin="round" stroke-width="1.5"/>
    <path id="Path_11948" data-name="Path 11948" d="M16.941,11.089a4.216,4.216,0,0,1,3.4,3.743" transform="translate(-2.35 -0.957)" fill="none" stroke="#6e6e7f" stroke-linecap="round" stroke-linejoin="round" stroke-width="1.5"/>
  </g>
</svg>
