<svg xmlns="http://www.w3.org/2000/svg" width="17.015" height="17.015" viewBox="0 0 17.015 17.015">
  <g id="Key" transform="translate(-3.25 -2.263)">
    <path id="Path_11971" data-name="Path 11971" d="M8.747,10.677a5.583,5.583,0,1,1,3.1,3.1h0L10.83,14.8H8.967v1.863H7.1v1.863H4v-3.1l4.747-4.747Z" transform="translate(0 0)" fill="none" stroke="#4fd9c0" stroke-linecap="round" stroke-linejoin="round" stroke-width="1.5"/>
    <path id="Path_11972" data-name="Path 11972" d="M22.31,9.621A.31.31,0,1,0,22,9.31.31.31,0,0,0,22.31,9.621Z" transform="translate(-6.824 -2.269)" fill="none" stroke="#4fd9c0" stroke-linecap="round" stroke-linejoin="round" stroke-width="1.5" opacity="0.5"/>
    <path id="Path_11973" data-name="Path 11973" d="M21.931,9.863A.931.931,0,1,0,21,8.931.931.931,0,0,0,21.931,9.863Z" transform="translate(-6.445 -1.89)" fill="#4fd9c0"/>
  </g>
</svg>
