<svg xmlns="http://www.w3.org/2000/svg" width="64.458" height="64.458" viewBox="0 0 64.458 64.458"><g transform="translate(-25 -25)"><path d="M48.6,44.1H75.028a7.606,7.606,0,0,1,7.606,7.606h0a7.606,7.606,0,0,1-7.606,7.606H48.6Z" transform="translate(-8.388 -6.789)" fill="#3cdbc0"/><path d="M48.6,82.3H75.028a7.606,7.606,0,0,1,7.606,7.606h0a7.606,7.606,0,0,1-7.606,7.606H48.6Z" transform="translate(-8.388 -20.366)" fill="#3cdbc0"/><path d="M76.566,29.512a8.38,8.38,0,0,1,8.38,8.38V84.946H29.512V29.512H76.566m0-4.512H25V89.458H89.458V37.892A12.892,12.892,0,0,0,76.566,25Z" fill="#3cdbc0"/></g></svg>