<svg xmlns="http://www.w3.org/2000/svg" width="18.274" height="18.274" viewBox="0 0 18.274 18.274">
  <path id="Path_11625" data-name="Path 11625" d="M10.524-4.613A9.137,9.137,0,0,0,1.387-13.75,9.137,9.137,0,0,0-7.75-4.613,9.137,9.137,0,0,0,1.387,4.524,9.137,9.137,0,0,0,10.524-4.613ZM.33.225A.59.59,0,0,1-.5.225L-4.335-3.606a.59.59,0,0,1,0-.834l.834-.834a.59.59,0,0,1,.834,0L-.087-2.693,5.442-8.221a.589.589,0,0,1,.834,0l.834.834a.59.59,0,0,1,0,.834Z" transform="translate(7.75 13.75)" fill="#3cdbc0"/>
</svg>
