<svg xmlns="http://www.w3.org/2000/svg" width="25.5" height="21.5" viewBox="0 0 25.5 21.5"><g transform="translate(-3.25 -5.25)"><path d="M19,14h5" fill="none" stroke="#999" stroke-linecap="round" stroke-linejoin="round" stroke-width="1.5"/><path d="M19,18h5" fill="none" stroke="#999" stroke-linecap="round" stroke-linejoin="round" stroke-width="1.5"/><path d="M11.512,18a3,3,0,1,0-3-3A3,3,0,0,0,11.512,18Z" fill="none" stroke="#999" stroke-linecap="round" stroke-linejoin="round" stroke-width="1.5"/><path d="M7.639,21a4,4,0,0,1,7.748,0" fill="none" stroke="#999" stroke-linecap="round" stroke-linejoin="round" stroke-width="1.5"/><path d="M27,6H5A1,1,0,0,0,4,7V25a1,1,0,0,0,1,1H27a1,1,0,0,0,1-1V7A1,1,0,0,0,27,6Z" fill="none" stroke="#999" stroke-linecap="round" stroke-linejoin="round" stroke-width="1.5"/></g></svg>