<svg xmlns="http://www.w3.org/2000/svg" width="19.367" height="17.878" viewBox="0 0 19.367 17.878">
  <g id="Storefront" transform="translate(-3.25 -4.25)">
    <path id="Path_12060" data-name="Path 12060" d="M6,17.448v6.366a.744.744,0,0,0,.744.744h13.4a.744.744,0,0,0,.744-.744V17.449" transform="translate(-0.511 -3.181)" fill="none" stroke="#74d7c1" stroke-linecap="round" stroke-linejoin="round" stroke-width="1.5"/>
    <path id="Path_12061" data-name="Path 12061" d="M6.05,5H19.816a.744.744,0,0,1,.716.54l1.335,4.671H4L5.335,5.54A.744.744,0,0,1,6.05,5Z" fill="none" stroke="#74d7c1" stroke-linecap="round" stroke-linejoin="round" stroke-width="1.5"/>
    <path id="Path_12062" data-name="Path 12062" d="M9.956,12v1.489a2.978,2.978,0,0,1-5.956,0V12" transform="translate(0 -1.789)" fill="none" stroke="#74d7c1" stroke-linecap="round" stroke-linejoin="round" stroke-width="1.5"/>
    <path id="Path_12063" data-name="Path 12063" d="M17.956,12v1.489a2.978,2.978,0,0,1-5.956,0V12" transform="translate(-2.044 -1.789)" fill="none" stroke="#74d7c1" stroke-linecap="round" stroke-linejoin="round" stroke-width="1.5"/>
    <path id="Path_12064" data-name="Path 12064" d="M25.956,12v1.489a2.978,2.978,0,0,1-5.956,0V12" transform="translate(-4.089 -1.789)" fill="none" stroke="#74d7c1" stroke-linecap="round" stroke-linejoin="round" stroke-width="1.5"/>
  </g>
</svg>
